{"glyphs":{"0":{"ha":774,"x_min":50,"x_max":722,"o":"m 382 -17 q 628 113 535 -17 q 722 451 722 242 q 633 788 722 657 q 392 919 543 919 q 144 790 239 919 q 50 451 50 661 q 140 115 50 246 q 382 -17 231 -17 m 413 58 q 285 180 333 58 q 235 515 236 301 q 263 760 235 676 q 361 844 292 844 q 488 724 440 844 q 538 388 536 603 q 510 142 538 226 q 413 58 482 58 "},"1":{"ha":357,"x_min":42,"x_max":304,"o":"m 49 0 l 304 0 q 267 106 275 56 q 260 232 260 156 l 260 922 q 42 818 178 876 q 83 733 74 772 q 92 621 92 694 l 92 232 q 84 106 92 156 q 49 0 76 56 "},"3":{"ha":692,"x_min":29,"x_max":646,"o":"m 438 464 q 621 688 621 525 q 542 857 621 796 q 349 918 464 918 q 144 853 231 918 q 57 664 57 789 l 57 619 l 236 601 q 210 726 210 667 q 238 820 210 785 q 317 856 267 856 q 408 806 376 856 q 439 668 439 757 q 410 540 439 590 q 328 490 382 490 l 251 490 l 231 413 q 306 421 268 421 q 424 360 379 421 q 468 200 468 299 q 441 95 468 133 q 368 57 414 57 q 276 107 319 57 q 185 264 232 157 l 29 182 q 331 -17 113 -17 q 554 56 463 -17 q 646 254 646 129 q 438 464 646 425 "},"4":{"ha":672,"x_min":-1,"x_max":656,"o":"m 617 215 l 656 360 q 540 351 603 354 l 540 911 l 447 911 l -1 215 l 382 215 l 382 204 q 374 96 382 135 q 339 0 367 57 l 579 0 q 547 94 554 56 q 540 200 540 132 l 540 215 l 617 215 m 157 339 l 385 692 l 385 342 l 157 339 "},"5":{"ha":679,"x_min":38,"x_max":633,"o":"m 354 568 q 147 508 236 568 l 171 751 l 389 751 q 575 740 524 751 l 579 903 l 115 903 l 75 404 q 258 456 160 456 q 415 387 357 456 q 474 214 474 318 q 382 57 474 57 q 189 268 288 57 l 38 182 q 165 31 85 78 q 331 -17 244 -17 q 543 72 453 -17 q 633 307 633 161 q 560 500 633 432 q 354 568 488 568 "},"6":{"ha":717,"x_min":49,"x_max":671,"o":"m 449 540 q 235 464 332 540 l 235 506 q 260 768 235 693 q 363 843 286 843 q 583 660 471 843 l 619 875 q 418 915 525 915 q 149 783 250 915 q 49 422 49 651 q 132 110 49 236 q 372 -17 215 -17 q 584 72 497 -17 q 671 306 671 161 q 614 480 671 419 q 449 540 557 540 m 400 56 q 292 144 335 56 q 238 400 249 233 q 381 435 303 435 q 468 387 439 435 q 497 231 497 339 q 400 56 494 56 "},"8":{"ha":692,"x_min":46,"x_max":650,"o":"m 472 486 q 628 710 628 569 q 558 858 628 796 q 364 919 488 919 q 147 844 232 919 q 63 657 63 769 q 207 433 63 528 q 46 211 46 342 q 136 41 46 100 q 349 -18 226 -18 q 557 51 464 -18 q 650 244 650 121 q 610 371 650 319 q 472 486 569 422 m 333 851 q 435 803 399 851 q 471 676 471 754 q 429 513 471 572 l 361 556 q 251 647 281 607 q 222 736 222 686 q 251 819 222 788 q 333 851 281 851 m 374 53 q 253 106 299 53 q 208 254 208 158 q 251 407 208 344 l 369 336 q 490 171 490 264 q 458 85 490 118 q 374 53 426 53 "}," ":{"ha":200,"x_min":0,"x_max":0,"o":""},"'":{"ha":256,"x_min":24,"x_max":232,"o":"m 24 951 q 128 618 63 768 q 232 951 193 768 l 24 951 "},"(":{"ha":404,"x_min":67,"x_max":372,"o":"m 361 -204 q 256 51 286 -86 q 226 392 226 188 q 261 724 226 586 q 372 989 296 861 q 150 776 233 933 q 67 392 67 619 q 147 6 67 164 q 361 -204 228 -151 "},")":{"ha":404,"x_min":32,"x_max":338,"o":"m 43 -204 q 257 6 176 -151 q 338 392 338 164 q 254 776 338 619 q 32 989 171 933 q 143 722 108 860 q 178 392 178 585 q 148 51 178 188 q 43 -204 118 -86 "},"*":{"ha":469,"x_min":32,"x_max":438,"o":"m 256 697 q 415 726 335 736 l 438 814 l 351 839 q 244 715 321 767 q 299 868 251 803 l 235 931 l 169 868 q 225 714 217 807 q 118 839 150 765 l 32 814 l 54 726 q 214 697 129 735 q 54 668 135 658 l 32 581 l 118 556 q 225 679 149 628 q 171 526 218 592 l 235 464 l 300 526 q 244 681 253 588 q 351 556 319 629 l 438 581 l 415 668 q 256 697 340 660 "},"+":{"ha":600,"x_min":71,"x_max":529,"o":"m 529 472 l 325 472 l 325 689 l 275 689 l 275 472 l 71 472 l 71 424 l 275 424 l 275 206 l 325 206 l 325 424 l 529 424 l 529 472 "},",":{"ha":286,"x_min":35,"x_max":240,"o":"m 58 -160 q 185 -81 131 -153 q 240 85 240 -8 q 210 206 240 151 q 35 99 100 135 q 85 -56 85 31 q 58 -160 85 -112 "},"-":{"ha":503,"x_min":71,"x_max":432,"o":"m 71 379 l 432 379 l 432 428 l 71 428 l 71 379 "},".":{"ha":310,"x_min":50,"x_max":260,"o":"m 156 -19 q 230 12 200 -19 q 260 85 260 43 q 230 158 260 126 q 154 189 200 189 q 80 158 110 189 q 50 85 50 126 q 80 12 50 43 q 156 -19 110 -19 "},"A":{"ha":746,"x_min":6,"x_max":740,"o":"m 740 0 q 640 215 689 65 l 418 910 l 335 910 l 113 215 q 6 0 63 65 l 183 0 q 164 103 164 31 q 179 208 164 156 l 203 292 l 422 292 l 446 208 q 461 93 461 150 q 444 0 461 28 l 740 0 m 217 339 l 315 682 l 410 339 l 217 339 "},"C":{"ha":694,"x_min":54,"x_max":649,"o":"m 649 179 q 506 133 575 133 q 302 241 382 133 q 222 544 222 349 q 256 756 222 683 q 371 829 290 829 q 604 636 497 829 l 640 889 q 474 919 569 919 q 169 785 283 919 q 54 442 54 650 q 156 102 54 225 q 403 -21 258 -21 q 569 35 500 -21 q 649 179 638 92 "},"I":{"ha":351,"x_min":50,"x_max":301,"o":"m 51 0 l 300 0 q 264 232 264 100 l 264 671 q 301 903 264 804 l 50 903 q 89 671 89 800 l 89 232 q 51 0 89 104 "},"P":{"ha":688,"x_min":50,"x_max":646,"o":"m 288 325 q 544 406 442 325 q 646 638 646 486 q 338 903 646 903 l 50 903 q 88 671 88 804 l 88 232 q 51 0 88 100 l 300 0 q 263 232 263 114 l 263 325 l 288 325 m 282 849 q 461 617 461 849 q 417 439 461 500 q 290 378 374 378 l 263 378 l 263 671 q 267 849 263 758 l 282 849 "},"T":{"ha":674,"x_min":10,"x_max":664,"o":"m 664 628 l 660 903 l 15 903 l 10 628 q 110 801 60 754 q 250 849 160 849 l 250 232 q 208 0 250 106 l 467 0 q 425 232 425 100 l 425 849 q 567 803 518 849 q 664 628 617 757 "},"U":{"ha":749,"x_min":50,"x_max":699,"o":"m 546 903 q 588 674 588 806 l 588 268 q 429 83 588 83 q 306 131 350 83 q 263 268 263 178 l 263 674 q 296 903 263 815 l 50 903 q 88 674 88 794 l 88 264 q 100 167 88 213 q 142 76 113 121 q 229 6 171 32 q 369 -21 288 -21 q 513 6 453 -21 q 603 76 574 32 q 647 167 633 121 q 660 264 660 213 l 660 674 q 699 903 660 800 l 546 903 "},"W":{"ha":1169,"x_min":1,"x_max":1168,"o":"m 988 903 q 1004 804 1004 874 q 992 694 1004 747 l 886 222 l 763 694 q 744 818 744 769 q 767 903 744 872 l 465 903 q 553 721 513 842 l 403 224 l 303 694 q 289 817 289 760 q 306 903 289 879 l 1 903 q 103 688 67 824 l 285 -7 l 382 -7 l 585 619 l 785 -7 l 888 -7 l 1060 688 q 1168 903 1090 811 l 988 903 "},"[":{"ha":417,"x_min":90,"x_max":381,"o":"m 90 -193 l 381 -193 l 381 -151 l 250 -151 l 250 931 l 381 931 l 381 972 l 90 972 l 90 -193 "},"\\":{"ha":406,"x_min":0,"x_max":406,"o":"m 349 -278 l 406 -278 l 63 972 l 0 972 l 349 -278 "},"]":{"ha":417,"x_min":35,"x_max":325,"o":"m 35 -193 l 325 -193 l 325 972 l 35 972 l 35 931 l 167 931 l 167 -151 l 35 -151 l 35 -193 "},"^":{"ha":378,"x_min":43,"x_max":335,"o":"m 335 661 l 218 933 l 160 933 l 43 661 l 93 661 l 189 882 l 285 661 l 335 661 "},"_":{"ha":549,"x_min":0,"x_max":535,"o":"m 0 -149 l 535 -149 l 535 -100 l 0 -100 l 0 -149 "},"`":{"ha":532,"x_min":97,"x_max":435,"o":"m 435 765 q 319 851 363 806 q 229 972 276 896 l 97 861 q 199 782 135 810 q 340 754 263 754 q 435 765 392 754 "},"a":{"ha":632,"x_min":36,"x_max":601,"o":"m 601 0 q 571 101 578 54 q 564 231 564 147 l 564 436 q 510 638 564 565 q 325 711 457 711 q 132 646 199 711 q 65 483 65 581 l 65 446 l 250 436 q 219 565 219 506 q 239 631 219 608 q 294 654 258 654 q 390 481 390 654 l 390 429 q 360 389 390 408 q 247 335 331 369 q 187 310 206 318 q 133 282 168 301 q 82 244 99 263 q 51 198 65 226 q 36 136 36 169 q 79 30 36 71 q 193 -11 122 -11 q 392 94 315 -11 q 418 0 396 38 l 601 0 m 306 103 q 235 131 260 103 q 211 206 211 158 q 241 284 211 260 q 347 308 271 308 q 383 302 375 308 q 390 274 390 296 l 390 128 q 306 103 350 103 "},"b":{"ha":663,"x_min":31,"x_max":625,"o":"m 414 710 q 235 604 292 710 l 235 989 q 31 911 142 949 q 63 707 63 839 l 63 0 l 153 0 l 193 57 q 326 -10 244 -10 q 541 101 457 -10 q 625 403 625 211 q 567 633 625 557 q 414 710 510 710 m 332 51 q 265 81 296 51 q 235 167 235 110 l 235 558 q 325 599 276 599 q 413 535 383 597 q 443 329 443 474 q 332 51 443 51 "},"c":{"ha":557,"x_min":39,"x_max":528,"o":"m 528 171 q 403 129 460 129 q 255 208 304 129 q 206 454 206 286 q 293 636 206 636 q 479 461 372 636 l 521 683 q 383 711 456 711 q 129 604 219 711 q 39 335 39 497 q 118 79 39 176 q 321 -18 197 -18 q 459 31 406 -18 q 528 171 513 81 "},"d":{"ha":669,"x_min":42,"x_max":631,"o":"m 631 0 q 597 203 597 93 l 597 988 q 394 911 496 939 q 426 707 426 847 l 426 688 q 338 708 389 708 q 131 605 219 708 q 42 311 42 501 q 107 74 42 158 q 269 -10 172 -10 q 429 79 371 -10 q 456 0 439 22 l 631 0 m 369 107 q 221 383 221 107 q 335 649 221 649 q 400 609 375 649 q 426 489 425 569 l 426 121 q 369 107 403 107 "},"e":{"ha":617,"x_min":39,"x_max":576,"o":"m 576 450 q 516 638 576 564 q 338 713 456 713 q 117 607 194 713 q 39 342 39 501 q 121 81 39 181 q 333 -18 203 -18 q 499 40 438 -18 q 572 175 560 99 q 426 133 504 133 q 271 188 321 133 q 211 349 221 243 l 576 349 l 576 450 m 351 390 l 208 390 l 208 421 q 311 651 208 651 q 401 449 401 651 q 393 400 401 410 q 351 390 385 390 "},"f":{"ha":375,"x_min":-11,"x_max":439,"o":"m 233 911 q 313 865 267 911 q 390 757 360 819 l 439 963 q 322 986 392 986 q 133 903 199 986 q 68 699 68 821 l -1 699 l -11 650 l 68 650 l 68 232 q 36 0 68 89 l 272 0 q 240 232 240 89 l 240 650 l 382 650 l 389 699 l 233 699 q 190 853 190 806 q 233 911 190 911 "},"g":{"ha":640,"x_min":6,"x_max":667,"o":"m 617 853 q 519 815 560 853 q 453 678 479 776 q 317 710 392 710 q 119 635 199 710 q 40 450 40 560 q 75 326 40 381 q 168 242 110 272 q 44 67 44 153 q 229 -31 44 -31 l 381 -31 q 473 -45 443 -31 q 503 -97 503 -60 q 469 -156 503 -133 q 369 -179 436 -179 q 96 -60 214 -179 l 6 -212 q 261 -282 117 -282 q 508 -201 414 -282 q 603 -8 603 -119 q 589 56 603 29 q 558 97 575 83 q 508 117 540 110 q 455 125 476 124 q 397 126 433 126 l 253 126 q 213 128 226 126 q 187 136 200 129 q 174 158 174 143 q 218 222 174 189 q 301 211 260 211 q 500 286 421 211 q 579 471 579 361 q 485 657 579 589 q 550 706 506 706 q 639 638 606 706 l 667 842 q 617 853 644 853 m 321 271 q 258 307 283 271 q 225 391 233 343 q 217 497 217 439 q 297 651 217 651 q 378 583 351 651 q 404 425 404 515 q 321 271 404 271 "},"h":{"ha":654,"x_min":38,"x_max":625,"o":"m 588 232 l 588 515 q 548 662 588 613 q 436 711 508 711 q 242 582 308 711 l 242 990 q 39 913 139 940 q 69 700 69 846 l 69 203 q 38 0 69 81 l 274 0 q 242 203 242 81 l 242 543 q 340 597 286 597 q 399 572 381 597 q 417 489 417 547 l 417 228 q 435 0 417 79 l 625 0 q 588 232 588 108 "},"i":{"ha":322,"x_min":44,"x_max":279,"o":"m 158 761 q 241 793 208 761 q 274 872 274 825 q 241 952 274 919 q 158 985 208 985 q 78 952 110 985 q 46 872 46 919 q 78 793 46 825 q 158 761 110 761 m 44 0 l 279 0 q 247 194 247 89 l 247 713 q 44 635 161 671 q 76 431 76 568 l 76 194 q 44 0 76 89 "},"j":{"ha":325,"x_min":-6,"x_max":275,"o":"m 160 761 q 242 793 210 761 q 275 872 275 825 q 242 952 275 919 q 160 985 210 985 q 79 952 111 985 q 47 872 47 919 q 79 793 47 825 q 160 761 111 761 m -6 -278 q 250 113 250 -214 l 250 711 q 47 635 151 667 q 78 431 78 568 l 78 76 q 63 -131 78 -53 q -6 -278 47 -208 "},"k":{"ha":628,"x_min":38,"x_max":625,"o":"m 564 136 l 513 303 q 475 358 500 344 q 406 372 450 372 l 308 372 q 392 498 356 467 q 475 529 428 529 q 574 493 518 529 l 592 700 l 539 700 q 408 647 454 700 q 285 426 361 593 l 242 332 l 242 990 q 39 913 139 940 q 69 700 69 846 l 69 210 q 38 0 69 93 l 261 0 q 242 210 242 94 l 242 240 l 293 342 q 316 329 308 339 q 331 294 324 319 l 418 0 l 625 0 q 564 136 589 57 "},"l":{"ha":313,"x_min":38,"x_max":274,"o":"m 38 0 l 274 0 q 242 203 242 81 l 242 990 q 39 913 139 940 q 69 700 69 846 l 69 203 q 38 0 69 81 "},"m":{"ha":1008,"x_min":44,"x_max":979,"o":"m 942 232 l 942 515 q 902 661 942 611 q 789 711 863 711 q 590 574 657 711 q 443 711 567 711 q 249 583 315 711 q 218 714 246 653 q 44 635 151 681 q 76 438 76 569 l 76 203 q 44 0 76 81 l 281 0 q 249 203 249 76 l 249 543 q 347 597 294 597 q 404 572 386 597 q 422 489 422 547 l 422 0 l 632 0 q 594 232 594 107 l 594 515 q 593 542 594 533 q 694 597 640 597 q 751 572 733 597 q 769 489 769 547 l 769 229 q 788 0 769 79 l 979 0 q 942 232 942 101 "},"n":{"ha":661,"x_min":44,"x_max":632,"o":"m 594 232 l 594 515 q 555 661 594 611 q 443 711 515 711 q 249 583 315 711 q 218 714 246 653 q 44 635 151 681 q 76 438 76 569 l 76 203 q 44 0 76 81 l 281 0 q 249 203 249 76 l 249 543 q 347 597 294 597 q 404 572 386 597 q 422 489 422 547 l 422 228 q 440 0 422 79 l 632 0 q 594 232 594 108 "},"o":{"ha":665,"x_min":40,"x_max":625,"o":"m 326 -17 q 543 83 461 -17 q 625 350 625 182 q 544 614 625 514 q 339 714 464 714 q 122 614 204 714 q 40 346 40 514 q 120 83 40 183 q 326 -17 200 -17 m 346 46 q 256 151 288 46 q 225 404 225 256 q 319 651 225 651 q 409 546 378 651 q 440 292 440 440 q 346 46 440 46 "},"p":{"ha":663,"x_min":31,"x_max":625,"o":"m 414 710 q 233 600 290 710 q 204 714 229 664 q 31 636 114 669 q 63 408 63 558 l 63 -68 q 31 -278 63 -189 l 268 -278 q 235 -68 235 -190 l 235 25 q 335 -10 274 -10 q 543 99 461 -10 q 625 403 625 208 q 567 633 625 557 q 414 710 510 710 m 332 51 q 265 81 296 51 q 235 167 235 110 l 235 558 q 325 599 276 599 q 443 329 443 599 q 332 51 443 51 "},"q":{"ha":660,"x_min":42,"x_max":629,"o":"m 394 -278 l 629 -278 q 603 -185 608 -221 q 597 -90 597 -150 l 597 714 q 468 651 522 675 q 338 708 419 708 q 131 605 219 708 q 42 311 42 501 q 107 74 42 158 q 269 -10 172 -10 q 426 75 368 -10 l 426 -90 q 394 -278 426 -185 m 369 107 q 221 383 221 107 q 335 649 221 649 q 400 609 375 649 q 426 489 425 569 l 426 121 q 369 107 403 107 "},"r":{"ha":478,"x_min":24,"x_max":464,"o":"m 406 711 q 303 681 342 711 q 242 567 264 650 q 197 714 225 672 q 24 632 131 678 q 72 408 72 542 l 72 210 q 40 0 72 89 l 278 0 q 244 210 244 88 l 244 390 q 257 530 244 486 q 306 574 269 574 q 435 461 360 574 l 464 704 q 406 711 439 711 "},"s":{"ha":540,"x_min":17,"x_max":511,"o":"m 232 633 q 356 586 293 633 q 460 461 418 539 l 483 685 q 328 711 419 711 q 117 647 194 710 q 40 492 40 585 q 63 411 40 447 q 111 354 85 375 q 185 306 138 333 l 299 242 q 379 183 356 210 q 403 122 403 156 q 384 75 403 92 q 336 58 365 58 q 139 242 232 58 l 17 143 q 121 28 53 74 q 274 -17 189 -17 q 442 48 372 -17 q 511 208 511 113 q 388 397 511 325 l 307 444 q 199 518 229 490 q 168 579 168 546 q 185 619 168 604 q 232 633 203 633 "},"t":{"ha":421,"x_min":4,"x_max":415,"o":"m 256 233 l 256 650 l 408 650 l 415 699 l 256 699 l 256 900 q 76 811 164 844 q 83 699 81 768 l 11 699 l 4 650 l 83 650 l 83 175 q 124 31 83 78 q 231 -15 164 -15 q 359 36 307 -15 q 411 158 411 88 q 325 122 364 122 q 256 233 256 122 "},"u":{"ha":651,"x_min":35,"x_max":615,"o":"m 615 0 q 583 213 583 93 l 583 713 q 386 635 496 671 q 411 431 411 571 l 411 147 q 318 101 371 101 q 239 210 239 101 l 239 711 q 35 633 168 679 q 67 429 67 556 l 67 183 q 222 -12 67 -12 q 413 106 344 -12 q 440 0 421 38 l 615 0 "},"v":{"ha":622,"x_min":-8,"x_max":631,"o":"m 463 699 q 478 601 478 661 q 461 490 478 544 l 367 185 l 275 490 q 257 619 257 549 q 268 699 257 672 l -8 699 q 3 681 -3 690 q 15 665 10 672 q 25 647 19 658 q 34 628 31 635 q 43 608 38 622 q 51 587 49 593 q 61 563 54 581 q 70 538 68 544 q 80 511 72 532 q 90 483 88 490 l 263 0 l 354 0 l 525 483 q 559 575 549 547 q 589 638 569 603 q 631 699 608 674 l 463 699 "},"w":{"ha":976,"x_min":-8,"x_max":985,"o":"m 826 699 q 838 622 838 668 q 817 490 838 567 l 739 185 l 647 490 q 629 608 629 549 q 646 699 629 654 l 378 699 q 453 511 406 638 l 347 194 l 272 490 q 244 639 250 575 q 247 699 243 671 l -8 699 q 34 628 15 668 q 62 563 53 589 q 88 483 71 538 l 233 -4 l 325 -4 l 482 429 l 640 -4 l 733 -4 l 881 483 q 985 699 921 621 l 826 699 "},"x":{"ha":621,"x_min":0,"x_max":621,"o":"m 0 0 l 172 0 q 157 60 157 25 q 171 119 157 90 l 251 279 l 328 119 q 342 58 342 92 q 326 0 342 19 l 621 0 q 531 124 582 31 l 390 376 l 508 564 q 521 585 511 569 q 534 605 531 600 q 546 623 538 610 q 558 642 554 636 q 570 657 563 647 q 584 672 578 667 q 597 685 590 678 q 613 699 604 693 l 436 699 q 453 639 453 674 q 433 565 453 603 l 364 433 l 297 579 q 282 653 282 615 q 292 699 282 679 l 3 699 q 90 575 51 644 l 225 335 l 100 135 q 0 0 51 53 "},"y":{"ha":629,"x_min":-8,"x_max":639,"o":"m 471 699 q 485 604 485 671 q 469 490 485 538 l 372 171 l 278 490 q 260 618 260 550 q 271 699 260 672 l -8 699 q 92 483 40 638 l 243 14 l 322 14 l 308 -24 q 194 -108 278 -108 q 60 -67 133 -108 l 72 -278 l 125 -278 q 230 -261 194 -278 q 299 -187 265 -244 q 372 -3 332 -131 l 532 483 q 639 699 579 629 l 471 699 "},"z":{"ha":564,"x_min":11,"x_max":547,"o":"m 218 54 l 547 703 l 531 701 q 415 699 504 699 l 44 699 l 42 460 q 153 601 90 563 q 333 643 217 639 l 11 -4 q 147 0 57 0 l 531 0 l 532 239 q 408 102 476 144 q 218 54 340 60 "},"’":{"ha":267,"x_min":25,"x_max":231,"o":"m 49 603 q 176 682 121 610 q 231 847 231 754 q 200 968 231 914 q 25 861 90 897 q 75 706 75 793 q 49 603 75 650 "},"‚":{"ha":286,"x_min":35,"x_max":240,"o":"m 58 -160 q 185 -81 131 -153 q 240 85 240 -8 q 210 206 240 151 q 35 99 100 135 q 85 -56 85 31 q 58 -160 85 -112 "},"“":{"ha":506,"x_min":33,"x_max":475,"o":"m 215 963 q 89 883 144 956 q 33 719 33 811 q 64 597 33 654 q 239 704 138 646 q 189 860 189 772 q 215 963 189 915 m 451 963 q 325 883 381 956 q 269 719 269 811 q 300 597 269 654 q 475 704 372 646 q 425 860 425 772 q 451 963 425 915 "},"”":{"ha":503,"x_min":25,"x_max":467,"o":"m 49 603 q 176 682 121 610 q 231 847 231 754 q 200 968 231 914 q 25 861 90 897 q 75 706 75 793 q 49 603 75 650 m 285 603 q 412 682 357 610 q 467 847 467 754 q 436 968 467 914 q 261 861 326 897 q 311 706 311 793 q 285 603 311 650 "},"ﬁ":{"ha":676,"x_min":-11,"x_max":633,"o":"m 399 0 l 633 0 q 607 92 613 57 q 601 188 601 128 l 601 711 q 467 699 550 699 l 235 699 q 215 804 215 765 q 297 911 215 911 q 407 865 350 911 q 496 760 464 819 l 568 949 q 389 986 503 986 q 240 960 304 986 q 142 889 176 933 q 90 797 107 844 q 69 699 72 750 l -1 699 l -11 650 l 68 650 l 68 232 q 36 0 68 89 l 272 0 q 240 232 240 89 l 240 650 l 406 650 q 431 431 431 574 l 431 188 q 425 92 431 128 q 399 0 419 57 "},"ﬂ":{"ha":675,"x_min":-11,"x_max":636,"o":"m 397 0 l 636 0 q 604 203 604 81 l 604 990 q 533 958 557 968 q 381 986 468 986 q 161 910 247 986 q 68 699 75 833 l -1 699 l -11 650 l 68 650 l 68 232 q 36 0 68 89 l 272 0 q 240 232 240 89 l 240 650 l 350 650 l 375 699 l 235 699 q 215 806 215 761 q 296 913 215 913 q 418 856 358 913 q 431 700 431 810 l 431 203 q 397 0 431 85 "}}}
